# xmcd
#
# Track frame offsets:
#	150
#	13220
#	28160
#	40475
#	49752
#	61737
#	73780
#	86195
#	98537
#	110092
#	122470
#	134485
#	146567
#	160032
#	176150
#	191557
#	201475
#	217635
#	231705
#	244945
#	262557
#	274082
#
# Disc length: 3863 seconds
#
# Revision: 0
# Processed by: cddbd v1.5.2PL0 Copyright (c) Steve Scherf et al.
# Submitted via: EasyCDDAExtractor 15.3.0.1
#
DISCID=470f1516
DTITLE=Reader's Digest Music - Don't Rock The Jukebox  [Country's All-Time Fav
DTITLE=orites]
DYEAR=2010
DGENRE=Country
TTITLE0=Alan Jackson - Don't Rock The Jukebox
TTITLE1=George Jones - He Stopped Loving Her Today
TTITLE2=Tammy Wynette - Stand By Your Man
TTITLE3=Charley Pride - Honky Tonk Blues
TTITLE4=Jim Reeves - Welcome To My World
TTITLE5=Tennessee Ernie Ford - Sixteen Tons
TTITLE6=Hank Williams Sr.  [Featuring The Singing Cowboys] - Your Cheatin' Hea
TTITLE6=rt
TTITLE7=Ray Price - Release Me
TTITLE8=Marty Robbins - A White Sport Coat  (And A Pink Carnation)
TTITLE9=Elvis Presley - Love Me Tender
TTITLE10=Johnny Cash - Ring Of Fire
TTITLE11=Dolly Parton - Jolene
TTITLE12=Glen Campbell - Gentle On My Mind
TTITLE13=Willie Nelson - Always On My Mind
TTITLE14=B.J. Thomas - (Hey Won't You Play)  Another Somebody Done Somebody Wr
TTITLE14=ong Song
TTITLE15=Waylon Jennings - The Wurlitzer Prize  (I Don't Want To Get Over You)
TTITLE16=Kenny Rogers - The Gambler
TTITLE17=Clint Black - A Better Man
TTITLE18=John Anderson - Straight Tequila Night
TTITLE19=Earl Thomas Conley - What I'd Say
TTITLE20=Ricky Van Shelton - I've Cried My Last Tear For You
TTITLE21=Doug Stone - A Jukebox With A Country Song
EXTD=
EXTT0=
EXTT1=
EXTT2=
EXTT3=
EXTT4=
EXTT5=
EXTT6=
EXTT7=
EXTT8=
EXTT9=
EXTT10=
EXTT11=
EXTT12=
EXTT13=
EXTT14=
EXTT15=
EXTT16=
EXTT17=
EXTT18=
EXTT19=
EXTT20=
EXTT21=
PLAYORDER=
